<svg xmlns="http://www.w3.org/2000/svg" width="1460" height="990" viewBox="0 0 1460 990"><defs><marker id="arrow" markerWidth="10" markerHeight="10" refX="8" refY="3" orient="auto" markerUnits="strokeWidth"><path d="M0,0 L0,6 L9,3 z" fill="context-stroke"/></marker></defs><rect width="100%" height="100%" fill="#ffffff"/><line x1="125" y1="225" x2="350" y2="225" stroke="#334155" stroke-width="2" marker-end="url(#arrow)"/><text x="237.5" y="219" font-family="Arial, Helvetica, sans-serif" font-size="12" fill="#334155" text-anchor="middle"><tspan>CSV bytes</tspan></text><line x1="350" y1="225" x2="635" y2="225" stroke="#334155" stroke-width="2" marker-end="url(#arrow)"/><text x="492.5" y="219" font-family="Arial, Helvetica, sans-serif" font-size="12" fill="#334155" text-anchor="middle"><tspan>put raw object</tspan></text><line x1="635" y1="225" x2="935" y2="225" stroke="#334155" stroke-width="2" marker-end="url(#arrow)"/><text x="785" y="219" font-family="Arial, Helvetica, sans-serif" font-size="12" fill="#334155" text-anchor="middle"><tspan>read raw</tspan></text><line x1="935" y1="225" x2="1235" y2="225" stroke="#334155" stroke-width="2" marker-end="url(#arrow)"/><text x="1085" y="219" font-family="Arial, Helvetica, sans-serif" font-size="12" fill="#334155" text-anchor="middle"><tspan>write passing rows</tspan></text><line x1="935" y1="225" x2="1235" y2="360" stroke="#DC2626" stroke-width="2" marker-end="url(#arrow)"/><text x="1085" y="286.5" font-family="Arial, Helvetica, sans-serif" font-size="12" fill="#DC2626" text-anchor="middle"><tspan>write failing rows</tspan></text><line x1="1235" y1="225" x2="490" y2="490" stroke="#2563EB" stroke-width="2" marker-end="url(#arrow)"/><text x="862.5" y="351.5" font-family="Arial, Helvetica, sans-serif" font-size="12" fill="#2563EB" text-anchor="middle"><tspan>curated Parquet</tspan></text><line x1="490" y1="490" x2="755" y2="490" stroke="#2563EB" stroke-width="2" marker-end="url(#arrow)"/><text x="622.5" y="484" font-family="Arial, Helvetica, sans-serif" font-size="12" fill="#2563EB" text-anchor="middle"><tspan>Avro messages</tspan></text><line x1="755" y1="490" x2="1025" y2="490" stroke="#2563EB" stroke-width="2" marker-end="url(#arrow)"/><line x1="1025" y1="490" x2="1305" y2="490" stroke="#2563EB" stroke-width="2" marker-end="url(#arrow)"/><line x1="1305" y1="490" x2="1025" y2="630" stroke="#2563EB" stroke-width="2" marker-end="url(#arrow)"/><text x="1165" y="554" font-family="Arial, Helvetica, sans-serif" font-size="12" fill="#2563EB" text-anchor="middle"><tspan>consume topic</tspan></text><line x1="1025" y1="630" x2="1305" y2="630" stroke="#2563EB" stroke-width="2" marker-end="url(#arrow)"/><text x="1165" y="624" font-family="Arial, Helvetica, sans-serif" font-size="12" fill="#2563EB" text-anchor="middle"><tspan>JDBC sink</tspan></text><line x1="1235" y1="225" x2="505" y2="745" stroke="#16A34A" stroke-width="2" marker-end="url(#arrow)"/><text x="870" y="479" font-family="Arial, Helvetica, sans-serif" font-size="12" fill="#16A34A" text-anchor="middle"><tspan>curated Parquet</tspan></text><line x1="505" y1="745" x2="815" y2="745" stroke="#16A34A" stroke-width="2" marker-end="url(#arrow)"/><text x="660" y="739" font-family="Arial, Helvetica, sans-serif" font-size="12" fill="#16A34A" text-anchor="middle"><tspan>upsert staging</tspan></text><line x1="815" y1="745" x2="1120" y2="745" stroke="#16A34A" stroke-width="2" marker-end="url(#arrow)"/><text x="967.5" y="739" font-family="Arial, Helvetica, sans-serif" font-size="12" fill="#16A34A" text-anchor="middle"><tspan>merge or append</tspan></text><line x1="350" y1="225" x2="735" y2="895" stroke="#D97706" stroke-width="1" stroke-dasharray="6 4" marker-end="url(#arrow)"/><line x1="935" y1="225" x2="735" y2="895" stroke="#D97706" stroke-width="1" stroke-dasharray="6 4" marker-end="url(#arrow)"/><line x1="490" y1="490" x2="735" y2="895" stroke="#D97706" stroke-width="1" stroke-dasharray="6 4" marker-end="url(#arrow)"/><line x1="505" y1="745" x2="735" y2="895" stroke="#D97706" stroke-width="1" stroke-dasharray="6 4" marker-end="url(#arrow)"/><text x="46" y="51.5" font-family="Arial, Helvetica, sans-serif" font-size="26" font-weight="700" fill="#111827" text-anchor="start" ><tspan x="46" dy="0">ODS File Routes - Data Flow</tspan></text><text x="48" y="80.5" font-family="Arial, Helvetica, sans-serif" font-size="14" font-weight="400" fill="#475569" text-anchor="start" ><tspan x="48" dy="0">Solid arrows carry data. Dashed arrows write/read control-plane evidence.</tspan></text><rect x="60" y="188" width="130" height="74" fill="#F8FAFC" stroke="#64748B" stroke-width="1"/><ellipse cx="125" cy="188" rx="65" ry="8" fill="#F8FAFC" stroke="#64748B" stroke-width="1"/><path d="M60,262 C60,273 190,273 190,262" fill="none" stroke="#64748B" stroke-width="1"/><text x="125" y="222" font-family="Arial, Helvetica, sans-serif" font-size="12" font-weight="700" fill="#111827" text-anchor="middle" ><tspan x="125" dy="0">SFTP</tspan><tspan x="125" dy="15">/upload</tspan></text><rect x="260" y="180" width="180" height="90" rx="8" fill="#E0F2FE" stroke="#0284C7" stroke-width="1"/><text x="350" y="222" font-family="Arial, Helvetica, sans-serif" font-size="12" font-weight="700" fill="#111827" text-anchor="middle" ><tspan x="350" dy="0">dag_drop_to_raw</tspan><tspan x="350" dy="15">route by delivery</tspan></text><rect x="510" y="188" width="250" height="74" fill="#F8FAFC" stroke="#64748B" stroke-width="1"/><ellipse cx="635" cy="188" rx="125" ry="8" fill="#F8FAFC" stroke="#64748B" stroke-width="1"/><path d="M510,262 C510,273 760,273 760,262" fill="none" stroke="#64748B" stroke-width="1"/><text x="635" y="222" font-family="Arial, Helvetica, sans-serif" font-size="12" font-weight="400" fill="#111827" text-anchor="middle" ><tspan x="635" dy="0">S3 raw bucket</tspan><tspan x="635" dy="15">s3://ods-raw-local/{domain}/{dataset}/{date}/{file}</tspan></text><rect x="830" y="180" width="210" height="90" rx="8" fill="#FFFFFF" stroke="#334155" stroke-width="1"/><text x="935" y="222" font-family="Arial, Helvetica, sans-serif" font-size="12" font-weight="700" fill="#111827" text-anchor="middle" ><tspan x="935" dy="0">Glue ods_ingestion</tspan><tspan x="935" dy="15">read raw, schema validate, DQ</tspan></text><rect x="1110" y="188" width="250" height="74" fill="#F8FAFC" stroke="#64748B" stroke-width="1"/><ellipse cx="1235" cy="188" rx="125" ry="8" fill="#F8FAFC" stroke="#64748B" stroke-width="1"/><path d="M1110,262 C1110,273 1360,273 1360,262" fill="none" stroke="#64748B" stroke-width="1"/><text x="1235" y="222" font-family="Arial, Helvetica, sans-serif" font-size="12" font-weight="400" fill="#111827" text-anchor="middle" ><tspan x="1235" dy="0">S3 curated Parquet</tspan><tspan x="1235" dy="15">s3://ods-curated.../date=YYYY-MM-DD/</tspan></text><rect x="1110" y="328" width="250" height="64" fill="#FEF2F2" stroke="#DC2626" stroke-width="1"/><ellipse cx="1235" cy="328" rx="125" ry="8" fill="#FEF2F2" stroke="#DC2626" stroke-width="1"/><path d="M1110,392 C1110,403 1360,403 1360,392" fill="none" stroke="#DC2626" stroke-width="1"/><text x="1235" y="357" font-family="Arial, Helvetica, sans-serif" font-size="12" font-weight="400" fill="#111827" text-anchor="middle" ><tspan x="1235" dy="0">S3 DLQ</tspan><tspan x="1235" dy="15">failing DQ rows</tspan></text><rect x="60" y="470" width="260" height="50" rx="6.25" fill="#DBEAFE" stroke="#2563EB" stroke-width="1"/><text x="190" y="499.5" font-family="Arial, Helvetica, sans-serif" font-size="12" font-weight="700" fill="#111827" text-anchor="middle" ><tspan x="190" dy="0">file_pipeline delivery</tspan></text><rect x="380" y="450" width="220" height="80" rx="8" fill="#FFFFFF" stroke="#2563EB" stroke-width="1"/><text x="490" y="487" font-family="Arial, Helvetica, sans-serif" font-size="12" font-weight="700" fill="#111827" text-anchor="middle" ><tspan x="490" dy="0">Glue ods_s3_publish</tspan><tspan x="490" dy="15">Parquet to Avro messages</tspan></text><rect x="660" y="458" width="190" height="64" fill="#EFF6FF" stroke="#2563EB" stroke-width="1"/><ellipse cx="755" cy="458" rx="95" ry="8" fill="#EFF6FF" stroke="#2563EB" stroke-width="1"/><path d="M660,522 C660,533 850,533 850,522" fill="none" stroke="#2563EB" stroke-width="1"/><text x="755" y="487" font-family="Arial, Helvetica, sans-serif" font-size="12" font-weight="400" fill="#111827" text-anchor="middle" ><tspan x="755" dy="0">Kafka raw topic</tspan><tspan x="755" dy="15">target_topic</tspan></text><rect x="910" y="450" width="230" height="80" rx="8" fill="#FFFFFF" stroke="#2563EB" stroke-width="1" stroke-dasharray="6 4"/><text x="1025" y="487" font-family="Arial, Helvetica, sans-serif" font-size="12" font-weight="400" fill="#111827" text-anchor="middle" ><tspan x="1025" dy="0">Optional Glue canonicalize</tspan><tspan x="1025" dy="15">only when is_canonical=false</tspan></text><rect x="1200" y="458" width="210" height="64" fill="#EFF6FF" stroke="#2563EB" stroke-width="1"/><ellipse cx="1305" cy="458" rx="105" ry="8" fill="#EFF6FF" stroke="#2563EB" stroke-width="1"/><path d="M1200,522 C1200,533 1410,533 1410,522" fill="none" stroke="#2563EB" stroke-width="1"/><text x="1305" y="487" font-family="Arial, Helvetica, sans-serif" font-size="12" font-weight="400" fill="#111827" text-anchor="middle" ><tspan x="1305" dy="0">Kafka canonical topic</tspan><tspan x="1305" dy="15">canonical_topic</tspan></text><rect x="910" y="590" width="230" height="80" rx="8" fill="#FFFFFF" stroke="#2563EB" stroke-width="1"/><text x="1025" y="627" font-family="Arial, Helvetica, sans-serif" font-size="12" font-weight="400" fill="#111827" text-anchor="middle" ><tspan x="1025" dy="0">Kafka Connect sinks</tspan><tspan x="1025" dy="15">JDBC and optional S3</tspan></text><rect x="1200" y="598" width="210" height="64" fill="#F8FAFC" stroke="#64748B" stroke-width="1"/><ellipse cx="1305" cy="598" rx="105" ry="8" fill="#F8FAFC" stroke="#64748B" stroke-width="1"/><path d="M1200,662 C1200,673 1410,673 1410,662" fill="none" stroke="#64748B" stroke-width="1"/><text x="1305" y="627" font-family="Arial, Helvetica, sans-serif" font-size="12" font-weight="700" fill="#111827" text-anchor="middle" ><tspan x="1305" dy="0">Postgres ODS tables</tspan><tspan x="1305" dy="15">current/history targets</tspan></text><rect x="60" y="720" width="260" height="50" rx="6.25" fill="#DCFCE7" stroke="#16A34A" stroke-width="1"/><text x="190" y="749.5" font-family="Arial, Helvetica, sans-serif" font-size="12" font-weight="700" fill="#111827" text-anchor="middle" ><tspan x="190" dy="0">direct_postgres delivery</tspan></text><rect x="380" y="705" width="250" height="80" rx="8" fill="#FFFFFF" stroke="#16A34A" stroke-width="1"/><text x="505" y="742" font-family="Arial, Helvetica, sans-serif" font-size="12" font-weight="700" fill="#111827" text-anchor="middle" ><tspan x="505" dy="0">Glue ods_postgres_write</tspan><tspan x="505" dy="15">append or stage-and-merge upsert</tspan></text><rect x="710" y="713" width="210" height="64" fill="#F0FDF4" stroke="#16A34A" stroke-width="1"/><ellipse cx="815" cy="713" rx="105" ry="8" fill="#F0FDF4" stroke="#16A34A" stroke-width="1"/><path d="M710,777 C710,788 920,788 920,777" fill="none" stroke="#16A34A" stroke-width="1"/><text x="815" y="742" font-family="Arial, Helvetica, sans-serif" font-size="12" font-weight="400" fill="#111827" text-anchor="middle" ><tspan x="815" dy="0">Postgres staging table</tspan><tspan x="815" dy="15">upsert path</tspan></text><rect x="1000" y="713" width="240" height="64" fill="#F0FDF4" stroke="#16A34A" stroke-width="1"/><ellipse cx="1120" cy="713" rx="120" ry="8" fill="#F0FDF4" stroke="#16A34A" stroke-width="1"/><path d="M1000,777 C1000,788 1240,788 1240,777" fill="none" stroke="#16A34A" stroke-width="1"/><text x="1120" y="742" font-family="Arial, Helvetica, sans-serif" font-size="12" font-weight="400" fill="#111827" text-anchor="middle" ><tspan x="1120" dy="0">Postgres target table</tspan><tspan x="1120" dy="15">tagged by _ods_run_id</tspan></text><path d="M70,850 H1410 V940 H70 C55,940 55,850 70,850 Z" fill="#FFFBEB" stroke="#D97706" stroke-width="1"/><path d="M70,850 C85,858 85,932 70,940" fill="none" stroke="#D97706" stroke-width="1"/><text x="735" y="892" font-family="Arial, Helvetica, sans-serif" font-size="12" font-weight="700" fill="#111827" text-anchor="middle" ><tspan x="735" dy="0">Control plane</tspan><tspan x="735" dy="15">dataset_config, file_catalogue, run_log, run_stage_log, lineage_edge, reconciliation_log</tspan></text></svg>